<?xml version="1.0" standalone="no"?>
<!DOCTYPE svg PUBLIC "-//W3C//DTD SVG 20010904//EN"
 "http://www.w3.org/TR/2001/REC-SVG-20010904/DTD/svg10.dtd">
<svg version="1.0" xmlns="http://www.w3.org/2000/svg"
 width="738.000000pt" height="738.000000pt" viewBox="0 0 738.000000 738.000000"
 preserveAspectRatio="xMidYMid meet">
<metadata>
Created by potrace 1.11, written by Peter Selinger 2001-2013
</metadata>
<g transform="translate(0.000000,738.000000) scale(0.100000,-0.100000)"
fill="#000000" stroke="none">
<path d="M2854 7290 c-16 -10 -58 -46 -94 -80 -248 -235 -243 -230 -217 -277
7 -12 67 -79 133 -150 67 -70 139 -147 160 -170 35 -37 216 -230 304 -323 19
-21 91 -97 160 -170 69 -74 141 -150 160 -170 19 -21 87 -93 150 -160 63 -68
131 -140 150 -160 19 -20 91 -97 160 -170 69 -73 139 -147 155 -165 26 -27
183 -194 302 -321 31 -34 187 -199 328 -349 134 -143 284 -302 341 -364 38
-41 101 -108 141 -150 53 -55 75 -86 82 -116 5 -22 35 -141 66 -265 31 -124
58 -232 60 -240 2 -8 4 -15 5 -15 1 0 3 -10 6 -22 2 -13 13 -56 23 -96 11 -40
23 -88 26 -106 3 -19 10 -43 16 -53 6 -11 9 -22 6 -24 -3 -3 2 -26 10 -52 8
-26 17 -60 19 -75 2 -15 8 -37 14 -47 6 -11 9 -20 6 -20 -3 0 0 -15 6 -32 10
-35 26 -99 33 -133 2 -11 4 -20 5 -20 2 0 7 -18 19 -70 10 -45 18 -76 26 -102
3 -10 12 -45 19 -78 8 -33 15 -60 16 -60 1 0 3 -9 5 -20 2 -11 15 -65 30 -120
14 -55 29 -111 32 -125 7 -37 21 -88 39 -151 2 -9 14 -27 25 -40 18 -21 234
-252 299 -320 57 -59 57 -53 -6 -111 -31 -29 -83 -78 -114 -108 -32 -30 -104
-98 -160 -150 -57 -52 -113 -105 -125 -118 l-22 -23 -129 136 c-240 254 -256
269 -304 283 -59 17 -331 102 -350 110 -8 3 -17 6 -20 7 -3 0 -66 21 -140 45
-74 24 -139 44 -145 46 -5 1 -37 11 -70 22 -33 11 -148 48 -255 82 -107 34
-215 69 -240 77 -25 8 -49 16 -55 17 -21 4 -402 128 -440 142 -22 9 -41 16
-42 15 -2 0 -8 1 -15 3 -7 3 -37 12 -67 21 -32 11 -66 31 -85 50 -17 18 -83
87 -146 155 -63 68 -131 140 -150 160 -19 21 -87 92 -150 160 -63 67 -133 141
-155 165 -22 23 -94 99 -160 170 -66 70 -136 144 -155 164 -19 20 -93 99 -165
176 -71 76 -143 153 -160 170 -16 18 -80 86 -142 151 -61 65 -129 137 -150
160 -21 22 -94 101 -163 174 -128 137 -250 267 -330 351 -25 26 -88 93 -140
149 -52 56 -120 128 -150 160 -30 32 -107 113 -170 181 -183 194 -194 205
-217 218 -30 16 -61 -1 -134 -71 -31 -29 -98 -92 -148 -140 -50 -47 -92 -92
-92 -100 -1 -7 -2 -20 -3 -28 -2 -22 -32 13 379 -425 50 -53 268 -285 305
-325 38 -41 264 -281 320 -340 19 -20 87 -92 150 -160 63 -68 135 -144 160
-170 61 -65 272 -290 351 -374 35 -37 87 -92 114 -121 43 -44 98 -103 291
-310 27 -29 213 -226 329 -349 28 -30 102 -109 165 -176 177 -190 178 -190
233 -215 29 -12 115 -49 192 -80 77 -32 154 -63 170 -71 17 -7 179 -74 360
-150 182 -75 346 -143 365 -151 19 -8 44 -19 55 -23 11 -4 47 -19 80 -33 70
-30 118 -50 125 -52 3 -1 22 -9 44 -18 21 -9 40 -17 43 -17 2 0 23 -9 46 -19
23 -10 83 -35 132 -55 50 -21 109 -46 132 -57 24 -10 45 -19 48 -19 5 0 72
-28 130 -55 17 -8 77 -33 135 -56 58 -22 129 -52 158 -65 29 -13 55 -24 58
-24 5 0 172 -69 229 -95 17 -7 55 -23 85 -35 30 -12 69 -28 85 -35 35 -16 126
-53 385 -160 102 -42 199 -82 215 -90 17 -7 82 -34 145 -60 63 -26 126 -52
140 -58 14 -6 27 -11 30 -12 3 0 27 -11 54 -23 27 -12 51 -22 53 -22 5 0 16
-5 103 -43 19 -9 60 -25 90 -37 30 -12 66 -27 80 -32 14 -6 33 -12 43 -13 27
-3 67 33 67 60 0 12 -18 74 -40 136 -23 63 -42 121 -44 129 -6 24 -57 173 -66
195 -10 23 -131 375 -134 390 -1 6 -4 15 -8 20 -3 6 -13 33 -21 60 -8 28 -34
102 -56 165 -23 63 -44 124 -46 135 -3 11 -9 29 -14 40 -5 11 -32 90 -61 175
-28 85 -55 164 -60 175 -5 11 -11 29 -14 40 -2 11 -28 85 -56 165 -28 80 -53
152 -55 160 -2 8 -4 16 -5 18 -2 1 -3 5 -5 10 -1 4 -4 14 -8 22 -10 25 -119
344 -121 355 -1 6 -4 15 -8 20 -3 6 -10 26 -16 45 -5 19 -47 141 -91 270 -45
129 -105 303 -133 385 -28 83 -55 156 -61 163 -5 6 -7 12 -4 12 3 0 -6 33 -20
73 -28 80 -187 542 -235 682 -17 50 -36 100 -42 112 -9 18 -85 101 -291 319
-27 29 -98 103 -157 166 -116 124 -121 129 -288 308 -63 67 -143 152 -178 189
-35 36 -105 111 -155 165 -51 55 -112 120 -137 146 -49 51 -276 293 -323 344
-16 17 -86 91 -156 165 -189 201 -198 210 -306 326 -55 59 -125 133 -155 165
-30 32 -102 108 -160 170 -58 62 -123 131 -145 155 -22 23 -94 99 -160 169
-141 151 -159 163 -201 136z"/>
<path d="M1585 7052 c-24 -2 -79 -16 -115 -27 -72 -23 -149 -76 -249 -170
-115 -109 -140 -133 -282 -265 -123 -115 -282 -272 -307 -304 -22 -27 -71
-141 -83 -193 -26 -103 -18 -276 17 -388 20 -62 75 -188 87 -196 5 -3 7 -8 5
-10 -6 -7 90 -143 137 -194 67 -73 243 -261 295 -316 25 -26 95 -100 155 -165
61 -65 137 -146 170 -180 33 -35 92 -98 132 -141 39 -43 100 -108 135 -144 35
-36 101 -107 148 -158 47 -50 114 -123 150 -160 36 -37 115 -121 175 -185 61
-65 130 -139 155 -165 25 -27 101 -108 170 -181 69 -74 159 -170 201 -214 42
-45 91 -97 109 -116 18 -19 85 -91 150 -160 65 -69 132 -141 150 -160 81 -88
284 -301 370 -390 90 -92 99 -99 180 -128 158 -57 445 -163 460 -169 8 -3 20
-7 25 -9 6 -1 91 -32 190 -69 99 -36 230 -84 290 -106 108 -40 145 -54 175
-68 12 -6 66 -7 92 -2 6 1 21 35 23 56 2 14 -23 56 -49 81 -11 12 -68 72 -126
134 -58 62 -127 137 -155 165 -27 29 -95 101 -150 160 -55 59 -125 133 -155
165 -30 32 -107 113 -170 181 -63 67 -128 137 -145 154 -16 18 -82 87 -145
155 -63 67 -133 141 -155 165 -22 23 -89 95 -150 159 -60 65 -138 147 -171
182 -34 36 -88 92 -119 127 -32 34 -115 122 -184 196 -178 189 -183 194 -311
331 -100 107 -201 215 -330 350 -19 21 -80 86 -135 145 -55 59 -127 135 -160
170 -33 35 -107 114 -165 176 -58 61 -127 135 -153 163 -27 28 -90 95 -140
149 -51 54 -117 124 -147 156 -103 108 -97 95 -57 133 19 18 86 80 147 138
176 164 182 169 241 227 l56 55 66 -69 c36 -37 80 -84 97 -103 18 -19 87 -93
154 -164 66 -71 142 -152 169 -180 26 -28 52 -55 57 -61 5 -5 19 -19 30 -30
11 -11 36 -38 56 -60 20 -22 91 -98 158 -169 66 -71 135 -143 151 -160 17 -18
91 -97 165 -176 74 -79 158 -167 185 -196 28 -29 87 -92 132 -141 44 -48 110
-118 145 -154 34 -37 104 -110 153 -164 50 -53 110 -118 135 -144 25 -26 104
-110 175 -186 72 -76 155 -164 185 -196 30 -32 89 -95 131 -141 43 -46 103
-110 135 -144 58 -60 261 -276 324 -344 18 -19 85 -91 149 -158 64 -68 136
-145 161 -172 397 -423 404 -430 429 -425 28 5 61 24 62 35 1 6 2 16 3 23 1 6
-6 41 -17 77 -10 36 -19 70 -21 75 -1 6 -11 37 -21 70 -10 33 -19 65 -20 70
-2 6 -17 57 -35 114 -17 57 -33 111 -35 120 -2 9 -10 36 -18 61 -8 25 -24 79
-36 120 -12 41 -27 86 -32 100 -5 14 -10 34 -12 45 -2 11 -6 27 -10 35 -3 8
-8 24 -12 35 -7 21 -95 322 -100 340 -11 48 -28 68 -215 266 -25 26 -92 98
-150 159 -58 62 -125 134 -150 160 -25 26 -92 98 -150 160 -58 62 -121 129
-140 149 -48 50 -281 298 -371 395 -41 44 -90 96 -109 116 -19 20 -87 92 -150
159 -63 68 -133 142 -155 165 -22 24 -92 98 -155 166 -63 67 -140 149 -170
181 -30 32 -102 108 -160 170 -58 62 -127 136 -155 164 -27 29 -97 104 -155
166 -58 62 -121 129 -140 149 -19 20 -80 85 -135 144 -88 96 -172 173 -262
243 -70 55 -266 141 -359 158 -44 8 -193 13 -239 7z"/>
</g>
</svg>
